<svg width="101" height="28" viewBox="0 0 101 28" fill="none" xmlns="http://www.w3.org/2000/svg">
<path d="M20.5592 19.4826C20.1959 20.3317 19.7471 21.1413 19.2197 21.8989C18.5152 22.9077 17.9367 23.6049 17.4932 23.9929C16.8045 24.6269 16.0645 24.9531 15.2734 24.9715C14.7067 24.9715 14.0219 24.8097 13.2242 24.4809C12.4239 24.1534 11.6893 23.9929 11.0162 23.9929C10.3117 23.9929 9.55607 24.1534 8.74661 24.4809C7.93847 24.8097 7.28513 24.982 6.78528 24.9978C6.0283 25.0307 5.27132 24.6966 4.51696 23.9929C4.03548 23.572 3.43331 22.8485 2.71044 21.8252C1.9364 20.7348 1.30012 19.4655 0.801587 18.0226C0.267633 16.4613 0 14.9513 0 13.4887C0 11.8143 0.36078 10.3687 1.08365 9.15862C1.63039 8.20826 2.41204 7.41507 3.35328 6.85549C4.28143 6.29735 5.34096 5.99682 6.42319 5.98474C7.02668 5.98474 7.81777 6.17152 8.79778 6.53981C9.77778 6.9081 10.4075 7.09487 10.6817 7.09487C10.889 7.09487 11.5856 6.87521 12.7716 6.43984C13.8907 6.03604 14.8353 5.86899 15.6093 5.93476C17.7084 6.10443 19.284 6.93309 20.3322 8.4273C18.4562 9.56769 17.5286 11.1632 17.547 13.2111C17.5628 14.8066 18.1413 16.1338 19.2748 17.1874C19.7759 17.6682 20.3606 18.0529 21 18.3225C20.8609 18.7263 20.714 19.1117 20.5592 19.4826ZM15.7484 0.50114C15.7484 1.7507 15.2918 2.91871 14.3853 3.99859C13.2885 5.28235 11.9635 6.02551 10.5269 5.90845C10.5081 5.75132 10.4989 5.59319 10.4993 5.43493C10.4993 4.23404 11.0189 2.95028 11.9464 1.89933C12.4082 1.36794 12.9959 0.924675 13.7083 0.572167C14.4194 0.224921 15.0911 0.0328832 15.7234 0C15.7405 0.168362 15.7484 0.335409 15.7484 0.50114Z" fill="white"/>
<path d="M33.7876 5.72607C33.7876 6.8042 33.5049 7.62012 32.9395 8.17383C32.374 8.72461 31.5435 9 30.4478 9H28.9097V2.5752H30.6455C31.6709 2.5752 32.4502 2.84326 32.9834 3.37939C33.5195 3.91553 33.7876 4.69775 33.7876 5.72607ZM33.2998 5.74365C33.2998 4.82373 33.0654 4.13232 32.5967 3.66943C32.1309 3.20361 31.4453 2.9707 30.54 2.9707H29.3579V8.60449H30.4214C32.3403 8.60449 33.2998 7.65088 33.2998 5.74365ZM39.105 6.60498C39.105 7.38428 38.916 7.99365 38.5381 8.43311C38.1602 8.86963 37.6387 9.08789 36.9736 9.08789C36.5547 9.08789 36.1855 8.98682 35.8662 8.78467C35.5469 8.58252 35.3022 8.29248 35.1323 7.91455C34.9624 7.53662 34.8774 7.1001 34.8774 6.60498C34.8774 5.82568 35.0664 5.21924 35.4443 4.78564C35.8223 4.34912 36.3408 4.13086 37 4.13086C37.6562 4.13086 38.1704 4.35205 38.5425 4.79443C38.9175 5.23389 39.105 5.8374 39.105 6.60498ZM35.3345 6.60498C35.3345 7.26123 35.478 7.77393 35.7651 8.14307C36.0552 8.50928 36.4639 8.69238 36.9912 8.69238C37.5186 8.69238 37.9258 8.50928 38.2129 8.14307C38.5029 7.77393 38.6479 7.26123 38.6479 6.60498C38.6479 5.9458 38.5015 5.43457 38.2085 5.07129C37.9185 4.70801 37.5098 4.52637 36.9824 4.52637C36.4551 4.52637 36.0479 4.70801 35.7607 5.07129C35.4766 5.43164 35.3345 5.94287 35.3345 6.60498ZM44.2466 9L43.2007 5.80518C43.1333 5.58838 43.0469 5.27051 42.9414 4.85156H42.915L42.8228 5.17676L42.625 5.81396L41.5615 9H41.1309L39.7642 4.22314H40.23L40.9946 6.9917C41.1733 7.67725 41.2905 8.18115 41.3462 8.50342H41.3726C41.5454 7.81787 41.6714 7.3623 41.7505 7.13672L42.7349 4.22314H43.1304L44.0664 7.12793C44.2773 7.81641 44.4062 8.27197 44.4531 8.49463H44.4795C44.5029 8.3042 44.6201 7.79443 44.8311 6.96533L45.5605 4.22314H46L44.7036 9H44.2466ZM50.2715 9V5.90186C50.2715 5.42139 50.1704 5.07275 49.9683 4.85596C49.7661 4.63623 49.4526 4.52637 49.0278 4.52637C48.4565 4.52637 48.0376 4.67139 47.771 4.96143C47.5073 5.24854 47.3755 5.71582 47.3755 6.36328V9H46.9404V4.22314H47.3096L47.3931 4.87793H47.4194C47.73 4.37988 48.2822 4.13086 49.0762 4.13086C50.1602 4.13086 50.7021 4.7124 50.7021 5.87549V9H50.2715ZM52.6841 9H52.249V2.16211H52.6841V9ZM58.2388 6.60498C58.2388 7.38428 58.0498 7.99365 57.6719 8.43311C57.2939 8.86963 56.7725 9.08789 56.1074 9.08789C55.6885 9.08789 55.3193 8.98682 55 8.78467C54.6807 8.58252 54.436 8.29248 54.2661 7.91455C54.0962 7.53662 54.0112 7.1001 54.0112 6.60498C54.0112 5.82568 54.2002 5.21924 54.5781 4.78564C54.9561 4.34912 55.4746 4.13086 56.1338 4.13086C56.79 4.13086 57.3042 4.35205 57.6763 4.79443C58.0513 5.23389 58.2388 5.8374 58.2388 6.60498ZM54.4683 6.60498C54.4683 7.26123 54.6118 7.77393 54.8989 8.14307C55.189 8.50928 55.5977 8.69238 56.125 8.69238C56.6523 8.69238 57.0596 8.50928 57.3467 8.14307C57.6367 7.77393 57.7817 7.26123 57.7817 6.60498C57.7817 5.9458 57.6353 5.43457 57.3423 5.07129C57.0522 4.70801 56.6436 4.52637 56.1162 4.52637C55.5889 4.52637 55.1816 4.70801 54.8945 5.07129C54.6104 5.43164 54.4683 5.94287 54.4683 6.60498ZM62.4619 9L62.3521 8.24414H62.3169C62.0767 8.55176 61.8291 8.77002 61.5742 8.89893C61.3223 9.0249 61.0234 9.08789 60.6777 9.08789C60.209 9.08789 59.8442 8.96777 59.5835 8.72754C59.3228 8.4873 59.1924 8.15479 59.1924 7.72998C59.1924 7.26416 59.3857 6.90234 59.7725 6.64453C60.1621 6.38672 60.7246 6.25049 61.46 6.23584L62.3696 6.20947V5.89307C62.3696 5.43896 62.2773 5.09619 62.0928 4.86475C61.9082 4.6333 61.6108 4.51758 61.2007 4.51758C60.7583 4.51758 60.2998 4.64062 59.8252 4.88672L59.6626 4.50879C60.187 4.2627 60.7056 4.13965 61.2183 4.13965C61.7427 4.13965 62.1338 4.27588 62.3916 4.54834C62.6523 4.8208 62.7827 5.24561 62.7827 5.82275V9H62.4619ZM60.7041 8.69238C61.2139 8.69238 61.6152 8.54736 61.9082 8.25732C62.2041 7.96436 62.3521 7.55859 62.3521 7.04004V6.56982L61.5171 6.60498C60.8462 6.63721 60.3672 6.74268 60.0801 6.92139C59.7959 7.09717 59.6538 7.37256 59.6538 7.74756C59.6538 8.04639 59.7446 8.2793 59.9263 8.44629C60.1108 8.61035 60.3701 8.69238 60.7041 8.69238ZM66.083 4.13086C66.4287 4.13086 66.7275 4.19385 66.9795 4.31982C67.2314 4.4458 67.457 4.66113 67.6562 4.96582H67.6826C67.665 4.59668 67.6562 4.23486 67.6562 3.88037V2.16211H68.0869V9H67.8013L67.6914 8.27051H67.6562C67.293 8.81543 66.7715 9.08789 66.0918 9.08789C65.4326 9.08789 64.9287 8.88281 64.5801 8.47266C64.2314 8.0625 64.0571 7.46484 64.0571 6.67969C64.0571 5.85352 64.23 5.22217 64.5757 4.78564C64.9214 4.34912 65.4238 4.13086 66.083 4.13086ZM66.083 4.52637C65.5615 4.52637 65.1689 4.70947 64.9053 5.07568C64.6445 5.44189 64.5142 5.97363 64.5142 6.6709C64.5142 8.02441 65.04 8.70117 66.0918 8.70117C66.6309 8.70117 67.0264 8.54443 67.2783 8.23096C67.5303 7.91748 67.6562 7.40039 67.6562 6.67969V6.60498C67.6562 5.8667 67.5317 5.33643 67.2827 5.01416C67.0366 4.68896 66.6367 4.52637 66.083 4.52637ZM75.9839 6.60498C75.9839 7.38428 75.7949 7.99365 75.417 8.43311C75.0391 8.86963 74.5176 9.08789 73.8525 9.08789C73.4336 9.08789 73.0645 8.98682 72.7451 8.78467C72.4258 8.58252 72.1812 8.29248 72.0112 7.91455C71.8413 7.53662 71.7563 7.1001 71.7563 6.60498C71.7563 5.82568 71.9453 5.21924 72.3232 4.78564C72.7012 4.34912 73.2197 4.13086 73.8789 4.13086C74.5352 4.13086 75.0493 4.35205 75.4214 4.79443C75.7964 5.23389 75.9839 5.8374 75.9839 6.60498ZM72.2134 6.60498C72.2134 7.26123 72.3569 7.77393 72.644 8.14307C72.9341 8.50928 73.3428 8.69238 73.8701 8.69238C74.3975 8.69238 74.8047 8.50928 75.0918 8.14307C75.3818 7.77393 75.5269 7.26123 75.5269 6.60498C75.5269 5.9458 75.3804 5.43457 75.0874 5.07129C74.7974 4.70801 74.3887 4.52637 73.8613 4.52637C73.334 4.52637 72.9268 4.70801 72.6396 5.07129C72.3555 5.43164 72.2134 5.94287 72.2134 6.60498ZM80.6377 9V5.90186C80.6377 5.42139 80.5366 5.07275 80.3345 4.85596C80.1323 4.63623 79.8188 4.52637 79.394 4.52637C78.8228 4.52637 78.4038 4.67139 78.1372 4.96143C77.8735 5.24854 77.7417 5.71582 77.7417 6.36328V9H77.3066V4.22314H77.6758L77.7593 4.87793H77.7856C78.0962 4.37988 78.6484 4.13086 79.4424 4.13086C80.5264 4.13086 81.0684 4.7124 81.0684 5.87549V9H80.6377ZM86.2144 8.70117C86.4897 8.70117 86.73 8.67773 86.9351 8.63086V8.98242C86.7241 9.05273 86.481 9.08789 86.2056 9.08789C85.7837 9.08789 85.4717 8.9751 85.2695 8.74951C85.0703 8.52393 84.9707 8.16943 84.9707 7.68604V4.60107H84.2632V4.34619L84.9707 4.14844L85.1904 3.06738H85.4146V4.22314H86.8164V4.60107H85.4146V7.62451C85.4146 7.99072 85.479 8.26172 85.6079 8.4375C85.7368 8.61328 85.939 8.70117 86.2144 8.70117ZM91.2988 9V5.90186C91.2988 5.42139 91.1978 5.07275 90.9956 4.85596C90.7935 4.63623 90.48 4.52637 90.0552 4.52637C89.4839 4.52637 89.0649 4.67139 88.7983 4.96143C88.5347 5.24854 88.4028 5.71582 88.4028 6.36328V9H87.9678V2.16211H88.4028V4.3374L88.3809 4.94824H88.4116C88.5903 4.66113 88.8159 4.45312 89.0884 4.32422C89.3608 4.19531 89.6992 4.13086 90.1035 4.13086C91.1875 4.13086 91.7295 4.7124 91.7295 5.87549V9H91.2988ZM95.2056 9.08789C94.5112 9.08789 93.9692 8.87402 93.5796 8.44629C93.1929 8.01855 92.9995 7.41943 92.9995 6.64893C92.9995 5.88721 93.187 5.27783 93.562 4.8208C93.937 4.36084 94.4424 4.13086 95.0781 4.13086C95.6406 4.13086 96.0845 4.32715 96.4097 4.71973C96.7349 5.1123 96.8975 5.64551 96.8975 6.31934V6.6709H93.4565C93.4624 7.32715 93.6147 7.82812 93.9136 8.17383C94.2153 8.51953 94.646 8.69238 95.2056 8.69238C95.478 8.69238 95.7168 8.67334 95.9219 8.63525C96.1299 8.59717 96.3921 8.51514 96.7085 8.38916V8.78467C96.439 8.90186 96.1899 8.98096 95.9614 9.02197C95.7329 9.06592 95.481 9.08789 95.2056 9.08789ZM95.0781 4.51758C94.6182 4.51758 94.249 4.66992 93.9707 4.97461C93.6924 5.27637 93.5298 5.71289 93.4829 6.28418H96.436C96.436 5.73047 96.3159 5.29834 96.0757 4.98779C95.8354 4.67432 95.5029 4.51758 95.0781 4.51758Z" fill="white"/>
<path d="M35.9028 24L35.1265 21.4512H31.2227L30.4463 24H28L31.7793 13.248H34.5552L38.3491 24H35.9028ZM34.5845 19.5469C33.8667 17.2373 33.4614 15.9312 33.3687 15.6284C33.2808 15.3257 33.2173 15.0864 33.1782 14.9106C33.0171 15.5356 32.5557 17.0811 31.7939 19.5469H34.5845ZM44.0254 24.1465C43.0635 24.1465 42.3091 23.7974 41.7622 23.0991H41.645C41.7231 23.7827 41.7622 24.1782 41.7622 24.2856V27.6035H39.5283V15.8115H41.3447L41.6597 16.8735H41.7622C42.2847 16.063 43.0586 15.6577 44.084 15.6577C45.0508 15.6577 45.8076 16.0312 46.3545 16.7783C46.9014 17.5254 47.1748 18.563 47.1748 19.8911C47.1748 20.7651 47.0454 21.5244 46.7866 22.1689C46.5327 22.8135 46.1689 23.3042 45.6953 23.6411C45.2217 23.978 44.665 24.1465 44.0254 24.1465ZM43.3662 17.4448C42.8145 17.4448 42.4116 17.6157 42.1577 17.9575C41.9038 18.2944 41.772 18.8535 41.7622 19.6348V19.8765C41.7622 20.7554 41.8916 21.3853 42.1504 21.7661C42.4141 22.147 42.8291 22.3374 43.3955 22.3374C44.3965 22.3374 44.897 21.5122 44.897 19.8618C44.897 19.0562 44.7725 18.4531 44.5234 18.0527C44.2793 17.6475 43.8936 17.4448 43.3662 17.4448ZM53.5176 24.1465C52.5557 24.1465 51.8013 23.7974 51.2544 23.0991H51.1372C51.2153 23.7827 51.2544 24.1782 51.2544 24.2856V27.6035H49.0205V15.8115H50.8369L51.1519 16.8735H51.2544C51.7769 16.063 52.5508 15.6577 53.5762 15.6577C54.543 15.6577 55.2998 16.0312 55.8467 16.7783C56.3936 17.5254 56.667 18.563 56.667 19.8911C56.667 20.7651 56.5376 21.5244 56.2788 22.1689C56.0249 22.8135 55.6611 23.3042 55.1875 23.6411C54.7139 23.978 54.1572 24.1465 53.5176 24.1465ZM52.8584 17.4448C52.3066 17.4448 51.9038 17.6157 51.6499 17.9575C51.396 18.2944 51.2642 18.8535 51.2544 19.6348V19.8765C51.2544 20.7554 51.3838 21.3853 51.6426 21.7661C51.9062 22.147 52.3213 22.3374 52.8877 22.3374C53.8887 22.3374 54.3892 21.5122 54.3892 19.8618C54.3892 19.0562 54.2646 18.4531 54.0156 18.0527C53.7715 17.6475 53.3857 17.4448 52.8584 17.4448ZM68.9058 21.0264C68.9058 21.9932 68.5566 22.7549 67.8584 23.3115C67.165 23.8682 66.1982 24.1465 64.958 24.1465C63.8154 24.1465 62.8047 23.9316 61.9258 23.502V21.3926C62.6484 21.7148 63.2588 21.9419 63.7568 22.0737C64.2598 22.2056 64.7188 22.2715 65.1338 22.2715C65.6318 22.2715 66.0127 22.1763 66.2764 21.9858C66.5449 21.7954 66.6792 21.5122 66.6792 21.1362C66.6792 20.9263 66.6206 20.7407 66.5034 20.5796C66.3862 20.4136 66.2129 20.2549 65.9834 20.1035C65.7588 19.9521 65.2974 19.7104 64.5991 19.3784C63.9448 19.0708 63.4541 18.7754 63.127 18.4922C62.7998 18.209 62.5386 17.8794 62.3433 17.5034C62.1479 17.1274 62.0503 16.688 62.0503 16.1851C62.0503 15.2378 62.3701 14.4932 63.0098 13.9512C63.6543 13.4092 64.543 13.1382 65.6758 13.1382C66.2324 13.1382 66.7622 13.2041 67.2651 13.3359C67.7729 13.4678 68.3027 13.6533 68.8545 13.8926L68.1221 15.6577C67.5508 15.4233 67.0771 15.2598 66.7012 15.167C66.3301 15.0742 65.9639 15.0278 65.6025 15.0278C65.1729 15.0278 64.8433 15.1279 64.6138 15.3281C64.3843 15.5283 64.2695 15.7896 64.2695 16.1118C64.2695 16.312 64.3159 16.4878 64.4087 16.6392C64.5015 16.7856 64.6479 16.9297 64.8481 17.0713C65.0532 17.208 65.5342 17.457 66.291 17.8184C67.292 18.2969 67.978 18.7778 68.3491 19.2612C68.7202 19.7397 68.9058 20.3281 68.9058 21.0264ZM74.1206 22.3667C74.5112 22.3667 74.98 22.2812 75.5269 22.1104V23.7729C74.9702 24.022 74.2866 24.1465 73.4761 24.1465C72.5825 24.1465 71.9307 23.9219 71.5205 23.4727C71.1152 23.0186 70.9126 22.3398 70.9126 21.4365V17.4888H69.8433V16.5439L71.0737 15.7969L71.7183 14.0684H73.1465V15.8115H75.439V17.4888H73.1465V21.4365C73.1465 21.7539 73.2344 21.9883 73.4102 22.1396C73.5908 22.291 73.8276 22.3667 74.1206 22.3667ZM78.9692 19.8911C78.9692 20.7017 79.1011 21.3145 79.3647 21.7295C79.6333 22.1445 80.0679 22.3521 80.6685 22.3521C81.2642 22.3521 81.6914 22.147 81.9502 21.7368C82.2139 21.3218 82.3457 20.7065 82.3457 19.8911C82.3457 19.0806 82.2139 18.4727 81.9502 18.0674C81.6865 17.6621 81.2544 17.4595 80.6538 17.4595C80.0581 17.4595 79.6284 17.6621 79.3647 18.0674C79.1011 18.4678 78.9692 19.0757 78.9692 19.8911ZM84.6309 19.8911C84.6309 21.2241 84.2793 22.2666 83.5762 23.0186C82.873 23.7705 81.894 24.1465 80.6392 24.1465C79.853 24.1465 79.1597 23.9756 78.5591 23.6338C77.9585 23.2871 77.4971 22.7915 77.1748 22.147C76.8525 21.5024 76.6914 20.7505 76.6914 19.8911C76.6914 18.5532 77.0405 17.5132 77.7388 16.771C78.437 16.0288 79.4185 15.6577 80.6831 15.6577C81.4692 15.6577 82.1626 15.8286 82.7632 16.1704C83.3638 16.5122 83.8252 17.0029 84.1475 17.6426C84.4697 18.2822 84.6309 19.0317 84.6309 19.8911ZM91.0469 15.6577C91.3496 15.6577 91.6011 15.6797 91.8013 15.7236L91.6328 17.8184C91.4521 17.7695 91.2324 17.7451 90.9736 17.7451C90.2607 17.7451 89.7041 17.9282 89.3037 18.2944C88.9082 18.6606 88.7104 19.1733 88.7104 19.8325V24H86.4766V15.8115H88.1685L88.498 17.1885H88.6079C88.8618 16.7295 89.2036 16.3608 89.6333 16.0825C90.0679 15.7993 90.5391 15.6577 91.0469 15.6577ZM96.6792 17.2471C96.2056 17.2471 95.8345 17.3984 95.5659 17.7012C95.2974 17.999 95.1436 18.4238 95.1045 18.9756H98.2393C98.2295 18.4238 98.0854 17.999 97.8071 17.7012C97.5288 17.3984 97.1528 17.2471 96.6792 17.2471ZM96.9941 24.1465C95.6758 24.1465 94.6455 23.7827 93.9033 23.0552C93.1611 22.3276 92.79 21.2974 92.79 19.9644C92.79 18.5923 93.1318 17.5327 93.8154 16.7856C94.5039 16.0337 95.4536 15.6577 96.6646 15.6577C97.8218 15.6577 98.7227 15.9873 99.3672 16.6465C100.012 17.3057 100.334 18.2163 100.334 19.3784V20.4624H95.0532C95.0776 21.0972 95.2656 21.5928 95.6172 21.9492C95.9688 22.3057 96.4619 22.4839 97.0967 22.4839C97.5898 22.4839 98.0562 22.4326 98.4956 22.3301C98.9351 22.2275 99.394 22.064 99.8726 21.8394V23.5679C99.4819 23.7632 99.0645 23.9072 98.6201 24C98.1758 24.0977 97.6338 24.1465 96.9941 24.1465Z" fill="white"/>
</svg>
