<svg width="100" height="100" viewBox="0 0 100 100" fill="none" xmlns="http://www.w3.org/2000/svg">
<path fill-rule="evenodd" clip-rule="evenodd" d="M100 50C100 52.7614 97.7614 55 95 55H5C2.23858 55 0 52.7614 0 50V50C0 47.2386 2.23858 45 5 45H95C97.7614 45 100 47.2386 100 50V50Z" fill="black"/>
<path fill-rule="evenodd" clip-rule="evenodd" d="M50 -2.18557e-07C52.7614 -3.39263e-07 55 2.23858 55 5L55 95C55 97.7614 52.7614 100 50 100V100C47.2386 100 45 97.7614 45 95L45 5C45 2.23858 47.2386 -9.78513e-08 50 -2.18557e-07V-2.18557e-07Z" fill="black"/>
<path fill-rule="evenodd" clip-rule="evenodd" d="M85.3553 14.6447C87.308 16.5973 87.308 19.7631 85.3553 21.7157L21.7157 85.3553C19.7631 87.3079 16.5973 87.3079 14.6447 85.3553V85.3553C12.692 83.4027 12.692 80.2369 14.6447 78.2843L78.2843 14.6447C80.2369 12.692 83.4027 12.692 85.3553 14.6447V14.6447Z" fill="black"/>
<path fill-rule="evenodd" clip-rule="evenodd" d="M14.6446 14.6447C16.5973 12.692 19.7631 12.692 21.7157 14.6447L85.3553 78.2843C87.3079 80.2369 87.3079 83.4027 85.3553 85.3553V85.3553C83.4027 87.308 80.2369 87.308 78.2843 85.3553L14.6446 21.7157C12.692 19.7631 12.692 16.5973 14.6446 14.6447V14.6447Z" fill="black"/>
</svg>
