<svg width="360" height="203" viewBox="0 0 360 203" fill="none" xmlns="http://www.w3.org/2000/svg">
<rect width="360" height="203" rx="10" fill="url(#paint0_linear)"/>
<path d="M37.624 49.12C36.728 49.12 36.016 48.9 35.488 48.46C34.96 48.012 34.692 47.408 34.684 46.648H36.184C36.184 47.008 36.312 47.292 36.568 47.5C36.832 47.708 37.188 47.812 37.636 47.812C38.068 47.812 38.404 47.712 38.644 47.512C38.892 47.304 39.016 47.024 39.016 46.672C39.016 46.376 38.928 46.12 38.752 45.904C38.576 45.688 38.332 45.536 38.02 45.448L37.012 45.172C36.332 44.996 35.804 44.68 35.428 44.224C35.052 43.768 34.864 43.216 34.864 42.568C34.864 41.824 35.112 41.232 35.608 40.792C36.104 40.344 36.772 40.12 37.612 40.12C38.452 40.12 39.12 40.34 39.616 40.78C40.12 41.212 40.376 41.796 40.384 42.532H38.884C38.884 42.188 38.772 41.92 38.548 41.728C38.324 41.528 38.008 41.428 37.6 41.428C37.208 41.428 36.904 41.52 36.688 41.704C36.472 41.888 36.364 42.148 36.364 42.484C36.364 42.788 36.448 43.048 36.616 43.264C36.784 43.48 37.02 43.628 37.324 43.708L38.368 43.996C39.056 44.18 39.584 44.496 39.952 44.944C40.328 45.392 40.516 45.948 40.516 46.612C40.516 47.108 40.396 47.548 40.156 47.932C39.916 48.308 39.576 48.6 39.136 48.808C38.704 49.016 38.2 49.12 37.624 49.12ZM44.8553 42.28C45.6873 42.28 46.3353 42.476 46.7993 42.868C47.2633 43.26 47.4953 43.812 47.4953 44.524V49H46.0433V47.848H46.0193C45.9393 48.24 45.7193 48.552 45.3593 48.784C45.0073 49.008 44.5673 49.12 44.0393 49.12C43.3753 49.12 42.8473 48.944 42.4553 48.592C42.0633 48.232 41.8673 47.748 41.8673 47.14C41.8673 46.484 42.0833 45.98 42.5153 45.628C42.9473 45.268 43.5593 45.088 44.3513 45.088H45.9953V44.536C45.9953 44.208 45.8953 43.956 45.6953 43.78C45.4953 43.604 45.2073 43.516 44.8313 43.516C44.4953 43.516 44.2193 43.588 44.0033 43.732C43.7953 43.868 43.6713 44.064 43.6313 44.32H42.1673C42.2393 43.696 42.5153 43.2 42.9953 42.832C43.4833 42.464 44.1033 42.28 44.8553 42.28ZM44.5433 47.992C44.9833 47.992 45.3353 47.888 45.5993 47.68C45.8633 47.472 45.9953 47.188 45.9953 46.828V46.024H44.3753C44.0713 46.024 43.8273 46.112 43.6433 46.288C43.4593 46.464 43.3673 46.7 43.3673 46.996C43.3673 47.3 43.4713 47.544 43.6793 47.728C43.8873 47.904 44.1753 47.992 44.5433 47.992ZM52.7586 42.28C53.4706 42.28 54.0306 42.5 54.4386 42.94C54.8466 43.38 55.0506 43.988 55.0506 44.764V45.244H53.4786V44.872C53.4786 44.448 53.3666 44.12 53.1426 43.888C52.9266 43.656 52.6266 43.54 52.2426 43.54C51.8586 43.54 51.5586 43.66 51.3426 43.9C51.1266 44.132 51.0186 44.456 51.0186 44.872V49H49.5186V42.4H50.9346V43.66H50.9466C51.0506 43.204 51.2546 42.86 51.5586 42.628C51.8626 42.396 52.2626 42.28 52.7586 42.28ZM59.2459 42.28C60.0779 42.28 60.7259 42.476 61.1899 42.868C61.6539 43.26 61.8859 43.812 61.8859 44.524V49H60.4339V47.848H60.4099C60.3299 48.24 60.1099 48.552 59.7499 48.784C59.3979 49.008 58.9579 49.12 58.4299 49.12C57.7659 49.12 57.2379 48.944 56.8459 48.592C56.4539 48.232 56.2579 47.748 56.2579 47.14C56.2579 46.484 56.4739 45.98 56.9059 45.628C57.3379 45.268 57.9499 45.088 58.7419 45.088H60.3859V44.536C60.3859 44.208 60.2859 43.956 60.0859 43.78C59.8859 43.604 59.5979 43.516 59.2219 43.516C58.8859 43.516 58.6099 43.588 58.3939 43.732C58.1859 43.868 58.0619 44.064 58.0219 44.32H56.5579C56.6299 43.696 56.9059 43.2 57.3859 42.832C57.8739 42.464 58.4939 42.28 59.2459 42.28ZM58.9339 47.992C59.3739 47.992 59.7259 47.888 59.9899 47.68C60.2539 47.472 60.3859 47.188 60.3859 46.828V46.024H58.7659C58.4619 46.024 58.2179 46.112 58.0339 46.288C57.8499 46.464 57.7579 46.7 57.7579 46.996C57.7579 47.3 57.8619 47.544 58.0699 47.728C58.2779 47.904 58.5659 47.992 58.9339 47.992ZM66.9333 42.28C67.5893 42.28 68.1093 42.496 68.4933 42.928C68.8853 43.36 69.0813 43.94 69.0813 44.668V49H67.5813V44.824C67.5813 44.432 67.4773 44.128 67.2693 43.912C67.0613 43.688 66.7693 43.576 66.3933 43.576C66.0173 43.576 65.7253 43.688 65.5173 43.912C65.3093 44.136 65.2053 44.456 65.2053 44.872V49H63.7053V40.24H65.2053V42.4L65.1693 43.66H65.1933C65.2573 43.228 65.4413 42.892 65.7453 42.652C66.0493 42.404 66.4453 42.28 66.9333 42.28ZM77.8439 49V40.24H79.6199L80.4719 43.036C80.6159 43.516 80.7239 43.936 80.7959 44.296C80.8599 43.936 80.9639 43.512 81.1079 43.024L81.9239 40.24H83.6999V49H82.2959V46.276C82.2959 45.54 82.3279 44.704 82.3919 43.768C82.4639 42.832 82.5479 41.94 82.6439 41.092L81.4679 45.232H80.0999L78.8879 41.092C78.9919 41.908 79.0759 42.784 79.1399 43.72C79.2119 44.648 79.2479 45.5 79.2479 46.276V49H77.8439ZM88.0752 41.404C87.8192 41.404 87.6112 41.332 87.4512 41.188C87.2992 41.044 87.2232 40.852 87.2232 40.612C87.2232 40.38 87.2992 40.192 87.4512 40.048C87.6112 39.896 87.8192 39.82 88.0752 39.82H88.3152C88.5632 39.82 88.7672 39.896 88.9272 40.048C89.0872 40.192 89.1672 40.38 89.1672 40.612C89.1672 40.852 89.0872 41.044 88.9272 41.188C88.7672 41.332 88.5592 41.404 88.3032 41.404H88.0752ZM91.0392 49H85.2552V47.632H87.5592V43.756H85.5552V42.4H88.9872V47.632H91.0392V49ZM96.1225 49C95.4665 49 94.9385 48.804 94.5385 48.412C94.1465 48.02 93.9505 47.504 93.9505 46.864V41.596H91.9345V40.24H95.4505V46.864C95.4505 47.096 95.5185 47.284 95.6545 47.428C95.7985 47.572 95.9865 47.644 96.2185 47.644H98.2705V49H96.1225ZM103.318 49C102.662 49 102.134 48.804 101.734 48.412C101.342 48.02 101.146 47.504 101.146 46.864V41.596H99.1298V40.24H102.646V46.864C102.646 47.096 102.714 47.284 102.85 47.428C102.994 47.572 103.182 47.644 103.414 47.644H105.466V49H103.318ZM112.289 46.06H108.257V46.528C108.257 47.464 108.697 47.932 109.577 47.932C109.913 47.932 110.181 47.876 110.381 47.764C110.581 47.644 110.709 47.472 110.765 47.248H112.253C112.141 47.816 111.841 48.272 111.353 48.616C110.865 48.952 110.269 49.12 109.565 49.12C109.005 49.12 108.517 49.012 108.101 48.796C107.693 48.58 107.377 48.28 107.153 47.896C106.929 47.504 106.817 47.048 106.817 46.528V44.872C106.817 44.352 106.929 43.9 107.153 43.516C107.377 43.124 107.697 42.82 108.113 42.604C108.529 42.388 109.013 42.28 109.565 42.28C110.117 42.28 110.597 42.388 111.005 42.604C111.413 42.82 111.729 43.124 111.953 43.516C112.177 43.9 112.289 44.352 112.289 44.872V46.06ZM108.257 45.124L110.849 45.1V44.86C110.849 44.396 110.741 44.044 110.525 43.804C110.309 43.564 109.989 43.444 109.565 43.444C109.133 43.444 108.805 43.568 108.581 43.816C108.365 44.056 108.257 44.408 108.257 44.872V45.124ZM117.516 42.28C118.228 42.28 118.788 42.5 119.196 42.94C119.604 43.38 119.808 43.988 119.808 44.764V45.244H118.236V44.872C118.236 44.448 118.124 44.12 117.9 43.888C117.684 43.656 117.384 43.54 117 43.54C116.616 43.54 116.316 43.66 116.1 43.9C115.884 44.132 115.776 44.456 115.776 44.872V49H114.276V42.4H115.692V43.66H115.704C115.808 43.204 116.012 42.86 116.316 42.628C116.62 42.396 117.02 42.28 117.516 42.28Z" fill="black"/>
<path d="M36.28 169.956L35.176 169.188L35.668 168.48C35.94 168.088 36.424 167.64 37.12 167.136L37.096 167.064C36.264 167.048 35.62 166.956 35.164 166.788L34.36 166.5L34.828 165.228L35.62 165.516C36.084 165.692 36.64 166.044 37.288 166.572L37.348 166.524C37.068 165.66 36.928 165 36.928 164.544V163.68H38.272V164.544C38.272 165.04 38.128 165.7 37.84 166.524L37.9 166.56C38.572 166.024 39.128 165.676 39.568 165.516L40.372 165.228L40.84 166.5L40.024 166.788C39.568 166.956 38.928 167.048 38.104 167.064L38.08 167.136C38.776 167.664 39.256 168.112 39.52 168.48L40.012 169.188L38.908 169.956L38.416 169.248C38.256 169.024 38.108 168.74 37.972 168.396C37.836 168.052 37.724 167.724 37.636 167.412H37.564C37.292 168.284 37.028 168.896 36.772 169.248L36.28 169.956ZM43.4753 169.956L42.3713 169.188L42.8633 168.48C43.1353 168.088 43.6193 167.64 44.3153 167.136L44.2913 167.064C43.4593 167.048 42.8153 166.956 42.3593 166.788L41.5553 166.5L42.0233 165.228L42.8153 165.516C43.2793 165.692 43.8353 166.044 44.4833 166.572L44.5433 166.524C44.2633 165.66 44.1233 165 44.1233 164.544V163.68H45.4673V164.544C45.4673 165.04 45.3233 165.7 45.0353 166.524L45.0953 166.56C45.7673 166.024 46.3233 165.676 46.7633 165.516L47.5673 165.228L48.0353 166.5L47.2193 166.788C46.7633 166.956 46.1233 167.048 45.2993 167.064L45.2753 167.136C45.9713 167.664 46.4513 168.112 46.7153 168.48L47.2073 169.188L46.1033 169.956L45.6113 169.248C45.4513 169.024 45.3033 168.74 45.1673 168.396C45.0313 168.052 44.9193 167.724 44.8313 167.412H44.7593C44.4873 168.284 44.2233 168.896 43.9673 169.248L43.4753 169.956ZM50.6706 169.956L49.5666 169.188L50.0586 168.48C50.3306 168.088 50.8146 167.64 51.5106 167.136L51.4866 167.064C50.6546 167.048 50.0106 166.956 49.5546 166.788L48.7506 166.5L49.2186 165.228L50.0106 165.516C50.4746 165.692 51.0306 166.044 51.6786 166.572L51.7386 166.524C51.4586 165.66 51.3186 165 51.3186 164.544V163.68H52.6626V164.544C52.6626 165.04 52.5186 165.7 52.2306 166.524L52.2906 166.56C52.9626 166.024 53.5186 165.676 53.9586 165.516L54.7626 165.228L55.2306 166.5L54.4146 166.788C53.9586 166.956 53.3186 167.048 52.4946 167.064L52.4706 167.136C53.1666 167.664 53.6466 168.112 53.9106 168.48L54.4026 169.188L53.2986 169.956L52.8066 169.248C52.6466 169.024 52.4986 168.74 52.3626 168.396C52.2266 168.052 52.1146 167.724 52.0266 167.412H51.9546C51.6826 168.284 51.4186 168.896 51.1626 169.248L50.6706 169.956ZM57.8659 169.956L56.7619 169.188L57.2539 168.48C57.5259 168.088 58.0099 167.64 58.7059 167.136L58.6819 167.064C57.8499 167.048 57.2059 166.956 56.7499 166.788L55.9459 166.5L56.4139 165.228L57.2059 165.516C57.6699 165.692 58.2259 166.044 58.8739 166.572L58.9339 166.524C58.6539 165.66 58.5139 165 58.5139 164.544V163.68H59.8579V164.544C59.8579 165.04 59.7139 165.7 59.4259 166.524L59.4859 166.56C60.1579 166.024 60.7139 165.676 61.1539 165.516L61.9579 165.228L62.4259 166.5L61.6099 166.788C61.1539 166.956 60.5139 167.048 59.6899 167.064L59.6659 167.136C60.3619 167.664 60.8419 168.112 61.1059 168.48L61.5979 169.188L60.4939 169.956L60.0019 169.248C59.8419 169.024 59.6939 168.74 59.5579 168.396C59.4219 168.052 59.3099 167.724 59.2219 167.412H59.1499C58.8779 168.284 58.6139 168.896 58.3579 169.248L57.8659 169.956ZM72.2566 169.956L71.1526 169.188L71.6446 168.48C71.9166 168.088 72.4006 167.64 73.0966 167.136L73.0726 167.064C72.2406 167.048 71.5966 166.956 71.1406 166.788L70.3366 166.5L70.8046 165.228L71.5966 165.516C72.0606 165.692 72.6166 166.044 73.2646 166.572L73.3246 166.524C73.0446 165.66 72.9046 165 72.9046 164.544V163.68H74.2486V164.544C74.2486 165.04 74.1046 165.7 73.8166 166.524L73.8766 166.56C74.5486 166.024 75.1046 165.676 75.5446 165.516L76.3486 165.228L76.8166 166.5L76.0006 166.788C75.5446 166.956 74.9046 167.048 74.0806 167.064L74.0566 167.136C74.7526 167.664 75.2326 168.112 75.4966 168.48L75.9886 169.188L74.8846 169.956L74.3926 169.248C74.2326 169.024 74.0846 168.74 73.9486 168.396C73.8126 168.052 73.7006 167.724 73.6126 167.412H73.5406C73.2686 168.284 73.0046 168.896 72.7486 169.248L72.2566 169.956ZM79.4519 169.956L78.3479 169.188L78.8399 168.48C79.1119 168.088 79.5959 167.64 80.2919 167.136L80.2679 167.064C79.4359 167.048 78.7919 166.956 78.3359 166.788L77.5319 166.5L77.9999 165.228L78.7919 165.516C79.2559 165.692 79.8119 166.044 80.4599 166.572L80.5199 166.524C80.2399 165.66 80.0999 165 80.0999 164.544V163.68H81.4439V164.544C81.4439 165.04 81.2999 165.7 81.0119 166.524L81.0719 166.56C81.7439 166.024 82.2999 165.676 82.7399 165.516L83.5439 165.228L84.0119 166.5L83.1959 166.788C82.7399 166.956 82.0999 167.048 81.2759 167.064L81.2519 167.136C81.9479 167.664 82.4279 168.112 82.6919 168.48L83.1839 169.188L82.0799 169.956L81.5879 169.248C81.4279 169.024 81.2799 168.74 81.1439 168.396C81.0079 168.052 80.8959 167.724 80.8079 167.412H80.7359C80.4639 168.284 80.1999 168.896 79.9439 169.248L79.4519 169.956ZM86.6472 169.956L85.5432 169.188L86.0352 168.48C86.3072 168.088 86.7912 167.64 87.4872 167.136L87.4632 167.064C86.6312 167.048 85.9872 166.956 85.5312 166.788L84.7272 166.5L85.1952 165.228L85.9872 165.516C86.4512 165.692 87.0072 166.044 87.6552 166.572L87.7152 166.524C87.4352 165.66 87.2952 165 87.2952 164.544V163.68H88.6392V164.544C88.6392 165.04 88.4952 165.7 88.2072 166.524L88.2672 166.56C88.9392 166.024 89.4952 165.676 89.9352 165.516L90.7392 165.228L91.2072 166.5L90.3912 166.788C89.9352 166.956 89.2952 167.048 88.4712 167.064L88.4472 167.136C89.1432 167.664 89.6232 168.112 89.8872 168.48L90.3792 169.188L89.2752 169.956L88.7832 169.248C88.6232 169.024 88.4752 168.74 88.3392 168.396C88.2032 168.052 88.0912 167.724 88.0032 167.412H87.9312C87.6592 168.284 87.3952 168.896 87.1392 169.248L86.6472 169.956ZM93.8425 169.956L92.7385 169.188L93.2305 168.48C93.5025 168.088 93.9865 167.64 94.6825 167.136L94.6585 167.064C93.8265 167.048 93.1825 166.956 92.7265 166.788L91.9225 166.5L92.3905 165.228L93.1825 165.516C93.6465 165.692 94.2025 166.044 94.8505 166.572L94.9105 166.524C94.6305 165.66 94.4905 165 94.4905 164.544V163.68H95.8345V164.544C95.8345 165.04 95.6905 165.7 95.4025 166.524L95.4625 166.56C96.1345 166.024 96.6905 165.676 97.1305 165.516L97.9345 165.228L98.4025 166.5L97.5865 166.788C97.1305 166.956 96.4905 167.048 95.6665 167.064L95.6425 167.136C96.3385 167.664 96.8185 168.112 97.0825 168.48L97.5745 169.188L96.4705 169.956L95.9785 169.248C95.8185 169.024 95.6705 168.74 95.5345 168.396C95.3985 168.052 95.2865 167.724 95.1985 167.412H95.1265C94.8545 168.284 94.5905 168.896 94.3345 169.248L93.8425 169.956ZM108.233 169.956L107.129 169.188L107.621 168.48C107.893 168.088 108.377 167.64 109.073 167.136L109.049 167.064C108.217 167.048 107.573 166.956 107.117 166.788L106.313 166.5L106.781 165.228L107.573 165.516C108.037 165.692 108.593 166.044 109.241 166.572L109.301 166.524C109.021 165.66 108.881 165 108.881 164.544V163.68H110.225V164.544C110.225 165.04 110.081 165.7 109.793 166.524L109.853 166.56C110.525 166.024 111.081 165.676 111.521 165.516L112.325 165.228L112.793 166.5L111.977 166.788C111.521 166.956 110.881 167.048 110.057 167.064L110.033 167.136C110.729 167.664 111.209 168.112 111.473 168.48L111.965 169.188L110.861 169.956L110.369 169.248C110.209 169.024 110.061 168.74 109.925 168.396C109.789 168.052 109.677 167.724 109.589 167.412H109.517C109.245 168.284 108.981 168.896 108.725 169.248L108.233 169.956ZM115.428 169.956L114.324 169.188L114.816 168.48C115.088 168.088 115.572 167.64 116.268 167.136L116.244 167.064C115.412 167.048 114.768 166.956 114.312 166.788L113.508 166.5L113.976 165.228L114.768 165.516C115.232 165.692 115.788 166.044 116.436 166.572L116.496 166.524C116.216 165.66 116.076 165 116.076 164.544V163.68H117.42V164.544C117.42 165.04 117.276 165.7 116.988 166.524L117.048 166.56C117.72 166.024 118.276 165.676 118.716 165.516L119.52 165.228L119.988 166.5L119.172 166.788C118.716 166.956 118.076 167.048 117.252 167.064L117.228 167.136C117.924 167.664 118.404 168.112 118.668 168.48L119.16 169.188L118.056 169.956L117.564 169.248C117.404 169.024 117.256 168.74 117.12 168.396C116.984 168.052 116.872 167.724 116.784 167.412H116.712C116.44 168.284 116.176 168.896 115.92 169.248L115.428 169.956ZM122.624 169.956L121.52 169.188L122.012 168.48C122.284 168.088 122.768 167.64 123.464 167.136L123.44 167.064C122.608 167.048 121.964 166.956 121.508 166.788L120.704 166.5L121.172 165.228L121.964 165.516C122.428 165.692 122.984 166.044 123.632 166.572L123.692 166.524C123.412 165.66 123.272 165 123.272 164.544V163.68H124.616V164.544C124.616 165.04 124.472 165.7 124.184 166.524L124.244 166.56C124.916 166.024 125.472 165.676 125.912 165.516L126.716 165.228L127.184 166.5L126.368 166.788C125.912 166.956 125.272 167.048 124.448 167.064L124.424 167.136C125.12 167.664 125.6 168.112 125.864 168.48L126.356 169.188L125.252 169.956L124.76 169.248C124.6 169.024 124.452 168.74 124.316 168.396C124.18 168.052 124.068 167.724 123.98 167.412H123.908C123.636 168.284 123.372 168.896 123.116 169.248L122.624 169.956ZM129.819 169.956L128.715 169.188L129.207 168.48C129.479 168.088 129.963 167.64 130.659 167.136L130.635 167.064C129.803 167.048 129.159 166.956 128.703 166.788L127.899 166.5L128.367 165.228L129.159 165.516C129.623 165.692 130.179 166.044 130.827 166.572L130.887 166.524C130.607 165.66 130.467 165 130.467 164.544V163.68H131.811V164.544C131.811 165.04 131.667 165.7 131.379 166.524L131.439 166.56C132.111 166.024 132.667 165.676 133.107 165.516L133.911 165.228L134.379 166.5L133.563 166.788C133.107 166.956 132.467 167.048 131.643 167.064L131.619 167.136C132.315 167.664 132.795 168.112 133.059 168.48L133.551 169.188L132.447 169.956L131.955 169.248C131.795 169.024 131.647 168.74 131.511 168.396C131.375 168.052 131.263 167.724 131.175 167.412H131.103C130.831 168.284 130.567 168.896 130.311 169.248L129.819 169.956ZM142.878 171V169.548L145.614 166.8C146.006 166.4 146.29 166.044 146.466 165.732C146.65 165.412 146.742 165.088 146.742 164.76C146.742 164.36 146.63 164.044 146.406 163.812C146.19 163.58 145.886 163.464 145.494 163.464C145.07 163.464 144.738 163.588 144.498 163.836C144.258 164.076 144.138 164.412 144.138 164.844H142.638C142.654 164.012 142.918 163.352 143.43 162.864C143.95 162.368 144.646 162.12 145.518 162.12C146.062 162.12 146.538 162.224 146.946 162.432C147.362 162.64 147.682 162.936 147.906 163.32C148.13 163.704 148.242 164.148 148.242 164.652C148.242 165.188 148.102 165.712 147.822 166.224C147.55 166.728 147.11 167.272 146.502 167.856L144.678 169.644H148.35V171H142.878ZM155.461 168.6C155.461 169.104 155.345 169.548 155.113 169.932C154.881 170.308 154.553 170.6 154.129 170.808C153.705 171.016 153.209 171.12 152.641 171.12C152.081 171.12 151.589 171.016 151.165 170.808C150.741 170.6 150.413 170.308 150.181 169.932C149.949 169.548 149.833 169.104 149.833 168.6H151.345C151.345 168.992 151.457 169.3 151.681 169.524C151.913 169.74 152.237 169.848 152.653 169.848C153.061 169.848 153.381 169.736 153.613 169.512C153.845 169.288 153.957 168.984 153.949 168.6V167.916C153.949 167.516 153.837 167.208 153.613 166.992C153.389 166.776 153.069 166.668 152.653 166.668H151.669V165.312L153.601 163.524H150.229V162.24H155.125V163.596L153.157 165.408C153.869 165.496 154.429 165.764 154.837 166.212C155.245 166.652 155.449 167.22 155.449 167.916L155.461 168.6ZM162.944 171H157.328V169.68H159.608V163.572L157.316 165.276V163.692L159.332 162.24H161.108V169.68H162.944V171ZM170.14 171H164.524V169.68H166.804V163.572L164.512 165.276V163.692L166.528 162.24H168.304V169.68H170.14V171Z" fill="black"/>
<path d="M45.946 111.622C45.946 112.913 45.5207 113.969 44.67 114.79C43.8193 115.611 42.6753 116.081 41.238 116.198V119.08H39.852V116.176C38.4293 116.044 37.3073 115.582 36.486 114.79C35.6793 113.998 35.2687 112.964 35.254 111.688H38.004C38.004 112.231 38.1653 112.685 38.488 113.052C38.8107 113.404 39.2653 113.639 39.852 113.756V109.07L39.522 108.982C38.2753 108.659 37.3073 108.08 36.618 107.244C35.9287 106.408 35.584 105.396 35.584 104.208C35.584 102.961 35.9653 101.942 36.728 101.15C37.4907 100.358 38.532 99.896 39.852 99.764V97.3H41.238V99.742C42.6167 99.8447 43.702 100.292 44.494 101.084C45.286 101.861 45.6893 102.881 45.704 104.142H42.954C42.954 103.614 42.8 103.181 42.492 102.844C42.1987 102.492 41.7807 102.265 41.238 102.162V106.606L42.008 106.826C43.2693 107.163 44.2373 107.743 44.912 108.564C45.6013 109.385 45.946 110.405 45.946 111.622ZM38.334 104.054C38.334 104.567 38.466 105.015 38.73 105.396C38.994 105.763 39.368 106.034 39.852 106.21V102.184C39.3533 102.287 38.972 102.499 38.708 102.822C38.4587 103.145 38.334 103.555 38.334 104.054ZM41.238 113.778C41.854 113.69 42.3307 113.47 42.668 113.118C43.02 112.766 43.196 112.304 43.196 111.732C43.196 111.189 43.0347 110.72 42.712 110.324C42.3893 109.928 41.942 109.649 41.37 109.488L41.238 109.444V113.778ZM48.9294 116V113.338L53.9454 108.3C54.6641 107.567 55.1847 106.914 55.5074 106.342C55.8447 105.755 56.0134 105.161 56.0134 104.56C56.0134 103.827 55.8081 103.247 55.3974 102.822C55.0014 102.397 54.4441 102.184 53.7254 102.184C52.9481 102.184 52.3394 102.411 51.8994 102.866C51.4594 103.306 51.2394 103.922 51.2394 104.714H48.4894C48.5187 103.189 49.0027 101.979 49.9414 101.084C50.8947 100.175 52.1707 99.72 53.7694 99.72C54.7667 99.72 55.6394 99.9107 56.3874 100.292C57.1501 100.673 57.7367 101.216 58.1474 101.92C58.5581 102.624 58.7634 103.438 58.7634 104.362C58.7634 105.345 58.5067 106.305 57.9934 107.244C57.4947 108.168 56.6881 109.165 55.5734 110.236L52.2294 113.514H58.9614V116H48.9294ZM67.9508 105.462C69.2415 105.462 70.2461 105.858 70.9648 106.65C71.6835 107.442 72.0428 108.549 72.0428 109.972V111.534C72.0428 112.986 71.5881 114.13 70.6788 114.966C69.7841 115.802 68.5448 116.22 66.9608 116.22C65.4795 116.22 64.2915 115.853 63.3968 115.12C62.5021 114.372 62.0108 113.36 61.9228 112.084H64.6728C64.7315 112.641 64.9515 113.074 65.3328 113.382C65.7288 113.675 66.2715 113.822 66.9608 113.822C67.7088 113.822 68.2808 113.624 68.6768 113.228C69.0875 112.832 69.2928 112.267 69.2928 111.534V109.972C69.2928 109.239 69.0948 108.681 68.6988 108.3C68.3028 107.904 67.7235 107.706 66.9608 107.706C66.5061 107.706 66.1028 107.801 65.7508 107.992C65.4135 108.183 65.1568 108.447 64.9808 108.784H62.2968L62.4068 99.94H71.4488V102.426H65.0028L64.9588 107.09H65.0028C65.1495 106.577 65.4795 106.181 65.9928 105.902C66.5061 105.609 67.1588 105.462 67.9508 105.462ZM82.7702 107.552C83.5916 107.757 84.2589 108.241 84.7722 109.004C85.3002 109.752 85.5642 110.617 85.5642 111.6C85.5642 112.524 85.3369 113.338 84.8822 114.042C84.4422 114.731 83.8116 115.267 82.9902 115.648C82.1836 116.029 81.2449 116.22 80.1742 116.22C79.1036 116.22 78.1576 116.037 77.3362 115.67C76.5296 115.289 75.8989 114.753 75.4442 114.064C75.0042 113.36 74.7842 112.553 74.7842 111.644C74.7842 110.661 75.0482 109.789 75.5762 109.026C76.1042 108.249 76.7716 107.757 77.5782 107.552C76.8596 107.347 76.2656 106.921 75.7962 106.276C75.3416 105.631 75.1142 104.883 75.1142 104.032C75.1142 103.181 75.3196 102.433 75.7302 101.788C76.1556 101.128 76.7496 100.622 77.5122 100.27C78.2896 99.9033 79.1769 99.72 80.1742 99.72C81.1716 99.72 82.0516 99.9033 82.8142 100.27C83.5916 100.622 84.1856 101.128 84.5962 101.788C85.0216 102.433 85.2342 103.181 85.2342 104.032C85.2342 104.883 85.0069 105.638 84.5522 106.298C84.0976 106.943 83.5036 107.361 82.7702 107.552ZM80.1742 101.81C79.4262 101.81 78.8396 102.023 78.4142 102.448C77.9889 102.859 77.7762 103.438 77.7762 104.186C77.7762 104.949 77.9889 105.55 78.4142 105.99C78.8396 106.415 79.4262 106.628 80.1742 106.628C80.9222 106.628 81.5089 106.415 81.9342 105.99C82.3596 105.55 82.5722 104.949 82.5722 104.186C82.5722 103.438 82.3596 102.859 81.9342 102.448C81.5089 102.023 80.9222 101.81 80.1742 101.81ZM80.1742 113.998C80.9956 113.998 81.6336 113.763 82.0882 113.294C82.5576 112.81 82.7922 112.15 82.7922 111.314C82.7922 110.478 82.5576 109.825 82.0882 109.356C81.6336 108.887 80.9956 108.652 80.1742 108.652C79.3529 108.652 78.7149 108.887 78.2602 109.356C77.8056 109.825 77.5782 110.478 77.5782 111.314C77.5782 112.15 77.8056 112.81 78.2602 113.294C78.7296 113.763 79.3676 113.998 80.1742 113.998ZM98.0956 116H95.3456V112.81H88.1956V108.828L94.3776 99.94H97.4576L90.8356 109.554V110.39H95.3456V106.76H98.0956V116ZM106.271 116.22C105.728 116.22 105.274 116.037 104.907 115.67C104.54 115.289 104.357 114.819 104.357 114.262C104.357 113.705 104.54 113.243 104.907 112.876C105.274 112.495 105.728 112.304 106.271 112.304H106.843C107.386 112.304 107.84 112.495 108.207 112.876C108.574 113.243 108.757 113.705 108.757 114.262C108.757 114.819 108.574 115.289 108.207 115.67C107.84 116.037 107.386 116.22 106.843 116.22H106.271ZM119.748 116.22C118.722 116.22 117.82 116.022 117.042 115.626C116.28 115.23 115.686 114.673 115.26 113.954C114.85 113.235 114.644 112.392 114.644 111.424V104.516C114.644 103.548 114.85 102.705 115.26 101.986C115.686 101.267 116.28 100.71 117.042 100.314C117.82 99.918 118.722 99.72 119.748 99.72C120.775 99.72 121.67 99.918 122.432 100.314C123.21 100.71 123.804 101.267 124.214 101.986C124.64 102.705 124.852 103.548 124.852 104.516V111.424C124.852 112.377 124.64 113.221 124.214 113.954C123.804 114.673 123.21 115.23 122.432 115.626C121.67 116.022 120.775 116.22 119.748 116.22ZM119.748 113.844C120.511 113.844 121.12 113.624 121.574 113.184C122.029 112.744 122.256 112.157 122.256 111.424V104.516C122.256 103.783 122.029 103.196 121.574 102.756C121.12 102.316 120.511 102.096 119.748 102.096C118.986 102.096 118.377 102.316 117.922 102.756C117.468 103.196 117.24 103.783 117.24 104.516V111.424C117.24 112.157 117.468 112.744 117.922 113.184C118.377 113.624 118.986 113.844 119.748 113.844ZM119.748 109.29C119.426 109.29 119.162 109.18 118.956 108.96C118.751 108.74 118.648 108.447 118.648 108.08V107.75C118.648 107.383 118.751 107.09 118.956 106.87C119.162 106.65 119.426 106.54 119.748 106.54C120.086 106.54 120.35 106.65 120.54 106.87C120.746 107.09 120.848 107.383 120.848 107.75V108.08C120.848 108.447 120.746 108.74 120.54 108.96C120.35 109.18 120.086 109.29 119.748 109.29ZM132.94 116.22C131.913 116.22 131.011 116.022 130.234 115.626C129.471 115.23 128.877 114.673 128.452 113.954C128.041 113.235 127.836 112.392 127.836 111.424V104.516C127.836 103.548 128.041 102.705 128.452 101.986C128.877 101.267 129.471 100.71 130.234 100.314C131.011 99.918 131.913 99.72 132.94 99.72C133.967 99.72 134.861 99.918 135.624 100.314C136.401 100.71 136.995 101.267 137.406 101.986C137.831 102.705 138.044 103.548 138.044 104.516V111.424C138.044 112.377 137.831 113.221 137.406 113.954C136.995 114.673 136.401 115.23 135.624 115.626C134.861 116.022 133.967 116.22 132.94 116.22ZM132.94 113.844C133.703 113.844 134.311 113.624 134.766 113.184C135.221 112.744 135.448 112.157 135.448 111.424V104.516C135.448 103.783 135.221 103.196 134.766 102.756C134.311 102.316 133.703 102.096 132.94 102.096C132.177 102.096 131.569 102.316 131.114 102.756C130.659 103.196 130.432 103.783 130.432 104.516V111.424C130.432 112.157 130.659 112.744 131.114 113.184C131.569 113.624 132.177 113.844 132.94 113.844ZM132.94 109.29C132.617 109.29 132.353 109.18 132.148 108.96C131.943 108.74 131.84 108.447 131.84 108.08V107.75C131.84 107.383 131.943 107.09 132.148 106.87C132.353 106.65 132.617 106.54 132.94 106.54C133.277 106.54 133.541 106.65 133.732 106.87C133.937 107.09 134.04 107.383 134.04 107.75V108.08C134.04 108.447 133.937 108.74 133.732 108.96C133.541 109.18 133.277 109.29 132.94 109.29Z" fill="black"/>
<path d="M315.153 41.9187C315.383 42.1371 315.568 42.3995 315.695 42.6902C315.822 42.981 315.89 43.2942 315.894 43.6116C315.898 43.9289 315.839 44.2439 315.719 44.5379C315.6 44.8318 315.422 45.0989 315.198 45.3233C314.974 45.5477 314.706 45.7249 314.413 45.8444C314.119 45.964 313.804 46.0234 313.486 46.0192C313.169 46.015 312.856 45.9473 312.565 45.8201C312.274 45.6929 312.012 45.5088 311.793 45.2785C311.358 44.8308 311.117 44.2299 311.122 43.6057C311.126 42.9815 311.376 42.3842 311.817 41.9427C312.259 41.5012 312.856 41.2511 313.48 41.2463C314.104 41.2415 314.705 41.4825 315.153 41.9171L315.153 41.9187ZM319.495 37.7957C321.048 39.3495 321.921 41.4568 321.921 43.654C321.921 45.8513 321.048 47.9586 319.495 49.5124C318.765 50.2407 317.872 50.8392 316.922 51.2556C316.731 51.3391 316.526 51.3843 316.318 51.3885C316.11 51.3927 315.904 51.356 315.71 51.2804C315.516 51.2047 315.339 51.0916 315.189 50.9476C315.039 50.8036 314.919 50.6315 314.836 50.441C314.752 50.2505 314.707 50.0455 314.703 49.8376C314.699 49.6297 314.735 49.423 314.811 49.2293C314.887 49.0356 315 48.8587 315.144 48.7086C315.288 48.5586 315.46 48.4384 315.65 48.355C316.247 48.0956 316.79 47.7291 317.254 47.2735C318.214 46.3136 318.753 45.0116 318.753 43.654C318.753 42.2965 318.214 40.9945 317.254 40.0345C316.797 39.5844 316.26 39.2236 315.671 38.9705C315.478 38.8888 315.303 38.7696 315.157 38.6199C315.01 38.4701 314.895 38.2927 314.817 38.0981C314.74 37.9034 314.702 37.6953 314.705 37.4858C314.709 37.2763 314.754 37.0696 314.838 36.8777C314.922 36.6857 315.043 36.5124 315.195 36.3677C315.346 36.2229 315.525 36.1097 315.721 36.0346C315.916 35.9595 316.125 35.9239 316.334 35.9299C316.544 35.936 316.75 35.9836 316.941 36.0699C317.892 36.4809 318.758 37.0662 319.495 37.7957ZM324.23 34.5562C325.426 35.7512 326.374 37.17 327.02 38.7314C327.667 40.2928 328 41.9663 328 43.6564C328 45.3465 327.667 47.02 327.02 48.5814C326.374 50.1429 325.426 51.5616 324.23 52.7566C323.259 53.7154 322.146 54.5182 320.929 55.1364C320.557 55.3129 320.131 55.3375 319.741 55.205C319.351 55.0725 319.028 54.7933 318.841 54.4266C318.653 54.0599 318.616 53.6347 318.737 53.241C318.858 52.8473 319.127 52.5163 319.488 52.318C320.41 51.8501 321.255 51.2429 321.992 50.5178C323.076 49.4339 323.888 48.1086 324.361 46.6503C324.834 45.1921 324.955 43.6425 324.714 42.1285C324.472 40.6145 323.876 39.1792 322.973 37.9404C322.07 36.7015 320.886 35.6942 319.518 35.0011C319.331 34.9082 319.165 34.7792 319.028 34.6215C318.891 34.4639 318.787 34.2807 318.721 34.0826C318.655 33.8844 318.629 33.6752 318.644 33.467C318.66 33.2587 318.716 33.0556 318.81 32.8692C318.904 32.6829 319.034 32.517 319.193 32.3811C319.351 32.2452 319.535 32.1421 319.734 32.0775C319.932 32.013 320.142 31.9884 320.35 32.0051C320.558 32.0218 320.761 32.0795 320.947 32.1749C322.161 32.789 323.269 33.5928 324.23 34.5562Z" fill="black"/>
<path fill-rule="evenodd" clip-rule="evenodd" d="M312 174.311C314.595 172.606 316.308 169.67 316.308 166.333C316.308 162.997 314.595 160.06 312 158.356C309.405 160.06 307.692 162.997 307.692 166.333C307.692 169.67 309.405 172.606 312 174.311Z" fill="black"/>
<path fill-rule="evenodd" clip-rule="evenodd" d="M312 174.976C314.811 173.129 316.667 169.948 316.667 166.333C316.667 162.719 314.811 159.538 312 157.691C313.627 156.622 315.574 156 317.667 156C323.374 156 328 160.626 328 166.333C328 172.04 323.374 176.667 317.667 176.667C315.574 176.667 313.627 176.045 312 174.976ZM312 174.976C310.373 176.045 308.426 176.667 306.333 176.667C300.626 176.667 296 172.04 296 166.333C296 160.626 300.626 156 306.333 156C308.426 156 310.373 156.622 312 157.691C309.189 159.538 307.333 162.719 307.333 166.333C307.333 169.948 309.189 173.129 312 174.976Z" fill="black"/>
<defs>
<linearGradient id="paint0_linear" x1="2.60646e-06" y1="42" x2="369" y2="172" gradientUnits="userSpaceOnUse">
<stop stop-color="#1FFFEF"/>
<stop offset="1" stop-color="#FDED53"/>
</linearGradient>
</defs>
</svg>
