<svg width="112" height="28" viewBox="0 0 112 28" fill="none" xmlns="http://www.w3.org/2000/svg">
<path d="M28.4365 5.76123H30.8052V8.69238C30.1841 8.95605 29.4854 9.08789 28.709 9.08789C27.6953 9.08789 26.9175 8.80225 26.3755 8.23096C25.8364 7.65674 25.5669 6.84521 25.5669 5.79639C25.5669 5.14307 25.7002 4.56445 25.9668 4.06055C26.2363 3.55371 26.6201 3.1626 27.1182 2.88721C27.6191 2.61182 28.1934 2.47412 28.8408 2.47412C29.541 2.47412 30.1694 2.60303 30.7261 2.86084L30.5459 3.26514C29.9893 3.00732 29.4121 2.87842 28.8145 2.87842C27.9678 2.87842 27.2954 3.14063 26.7974 3.66504C26.3022 4.18652 26.0547 4.89111 26.0547 5.77881C26.0547 6.74561 26.2905 7.47363 26.7622 7.96289C27.2339 8.44922 27.9268 8.69238 28.8408 8.69238C29.4326 8.69238 29.9351 8.60889 30.3481 8.44189V6.18311H28.4365V5.76123ZM34.2417 9.08789C33.5474 9.08789 33.0054 8.87402 32.6157 8.44629C32.229 8.01855 32.0356 7.41943 32.0356 6.64893C32.0356 5.88721 32.2231 5.27783 32.5981 4.8208C32.9731 4.36084 33.4785 4.13086 34.1143 4.13086C34.6768 4.13086 35.1206 4.32715 35.4458 4.71973C35.771 5.1123 35.9336 5.64551 35.9336 6.31934V6.6709H32.4927C32.4985 7.32715 32.6509 7.82812 32.9497 8.17383C33.2515 8.51953 33.6821 8.69238 34.2417 8.69238C34.5142 8.69238 34.7529 8.67334 34.958 8.63525C35.166 8.59717 35.4282 8.51514 35.7446 8.38916V8.78467C35.4751 8.90186 35.2261 8.98096 34.9976 9.02197C34.769 9.06592 34.5171 9.08789 34.2417 9.08789ZM34.1143 4.51758C33.6543 4.51758 33.2852 4.66992 33.0068 4.97461C32.7285 5.27637 32.5659 5.71289 32.519 6.28418H35.4722C35.4722 5.73047 35.3521 5.29834 35.1118 4.98779C34.8716 4.67432 34.5391 4.51758 34.1143 4.51758ZM38.5132 8.70117C38.7886 8.70117 39.0288 8.67773 39.2339 8.63086V8.98242C39.0229 9.05273 38.7798 9.08789 38.5044 9.08789C38.0825 9.08789 37.7705 8.9751 37.5684 8.74951C37.3691 8.52393 37.2695 8.16943 37.2695 7.68604V4.60107H36.562V4.34619L37.2695 4.14844L37.4893 3.06738H37.7134V4.22314H39.1152V4.60107H37.7134V7.62451C37.7134 7.99072 37.7778 8.26172 37.9067 8.4375C38.0356 8.61328 38.2378 8.70117 38.5132 8.70117ZM43.0396 9H42.6045V4.22314H43.0396V9ZM42.543 2.896C42.543 2.61475 42.6353 2.47412 42.8198 2.47412C42.9106 2.47412 42.981 2.51074 43.0308 2.58398C43.0835 2.65723 43.1099 2.76123 43.1099 2.896C43.1099 3.02783 43.0835 3.13184 43.0308 3.20801C42.981 3.28418 42.9106 3.32227 42.8198 3.32227C42.6353 3.32227 42.543 3.18018 42.543 2.896ZM45.9048 8.70117C46.1802 8.70117 46.4204 8.67773 46.6255 8.63086V8.98242C46.4146 9.05273 46.1714 9.08789 45.896 9.08789C45.4741 9.08789 45.1621 8.9751 44.96 8.74951C44.7607 8.52393 44.6611 8.16943 44.6611 7.68604V4.60107H43.9536V4.34619L44.6611 4.14844L44.8809 3.06738H45.105V4.22314H46.5068V4.60107H45.105V7.62451C45.105 7.99072 45.1694 8.26172 45.2983 8.4375C45.4272 8.61328 45.6294 8.70117 45.9048 8.70117ZM53.9468 6.60498C53.9468 7.38428 53.7578 7.99365 53.3799 8.43311C53.002 8.86963 52.4805 9.08789 51.8154 9.08789C51.3965 9.08789 51.0273 8.98682 50.708 8.78467C50.3887 8.58252 50.144 8.29248 49.9741 7.91455C49.8042 7.53662 49.7192 7.1001 49.7192 6.60498C49.7192 5.82568 49.9082 5.21924 50.2861 4.78564C50.6641 4.34912 51.1826 4.13086 51.8418 4.13086C52.498 4.13086 53.0122 4.35205 53.3843 4.79443C53.7593 5.23389 53.9468 5.8374 53.9468 6.60498ZM50.1763 6.60498C50.1763 7.26123 50.3198 7.77393 50.6069 8.14307C50.897 8.50928 51.3057 8.69238 51.833 8.69238C52.3604 8.69238 52.7676 8.50928 53.0547 8.14307C53.3447 7.77393 53.4897 7.26123 53.4897 6.60498C53.4897 5.9458 53.3433 5.43457 53.0503 5.07129C52.7603 4.70801 52.3516 4.52637 51.8242 4.52637C51.2969 4.52637 50.8896 4.70801 50.6025 5.07129C50.3184 5.43164 50.1763 5.94287 50.1763 6.60498ZM58.6006 9V5.90186C58.6006 5.42139 58.4995 5.07275 58.2974 4.85596C58.0952 4.63623 57.7817 4.52637 57.3569 4.52637C56.7856 4.52637 56.3667 4.67139 56.1001 4.96143C55.8364 5.24854 55.7046 5.71582 55.7046 6.36328V9H55.2695V4.22314H55.6387L55.7222 4.87793H55.7485C56.0591 4.37988 56.6113 4.13086 57.4053 4.13086C58.4893 4.13086 59.0312 4.7124 59.0312 5.87549V9H58.6006Z" fill="white"/>
<path d="M30.4126 17.9868H34.6606V23.5386C33.9722 23.7632 33.3228 23.9194 32.7124 24.0073C32.1069 24.1001 31.4868 24.1465 30.8521 24.1465C29.2358 24.1465 28.0005 23.6729 27.146 22.7256C26.2964 21.7734 25.8716 20.4087 25.8716 18.6313C25.8716 16.9028 26.3647 15.5552 27.3511 14.5884C28.3423 13.6216 29.7144 13.1382 31.4673 13.1382C32.5659 13.1382 33.6255 13.3579 34.646 13.7974L33.8916 15.6138C33.1104 15.2231 32.2974 15.0278 31.4526 15.0278C30.4712 15.0278 29.6851 15.3574 29.0942 16.0166C28.5034 16.6758 28.208 17.562 28.208 18.6753C28.208 19.8374 28.4448 20.7261 28.9185 21.3413C29.397 21.9517 30.0903 22.2568 30.9985 22.2568C31.4722 22.2568 31.9531 22.208 32.4414 22.1104V19.8765H30.4126V17.9868ZM38.8208 19.8911C38.8208 20.7017 38.9526 21.3145 39.2163 21.7295C39.4849 22.1445 39.9194 22.3521 40.52 22.3521C41.1157 22.3521 41.543 22.147 41.8018 21.7368C42.0654 21.3218 42.1973 20.7065 42.1973 19.8911C42.1973 19.0806 42.0654 18.4727 41.8018 18.0674C41.5381 17.6621 41.106 17.4595 40.5054 17.4595C39.9097 17.4595 39.48 17.6621 39.2163 18.0674C38.9526 18.4678 38.8208 19.0757 38.8208 19.8911ZM44.4824 19.8911C44.4824 21.2241 44.1309 22.2666 43.4277 23.0186C42.7246 23.7705 41.7456 24.1465 40.4907 24.1465C39.7046 24.1465 39.0112 23.9756 38.4106 23.6338C37.8101 23.2871 37.3486 22.7915 37.0264 22.147C36.7041 21.5024 36.543 20.7505 36.543 19.8911C36.543 18.5532 36.8921 17.5132 37.5903 16.771C38.2886 16.0288 39.27 15.6577 40.5347 15.6577C41.3208 15.6577 42.0142 15.8286 42.6147 16.1704C43.2153 16.5122 43.6768 17.0029 43.999 17.6426C44.3213 18.2822 44.4824 19.0317 44.4824 19.8911ZM48.1079 19.8911C48.1079 20.7017 48.2397 21.3145 48.5034 21.7295C48.772 22.1445 49.2065 22.3521 49.8071 22.3521C50.4028 22.3521 50.8301 22.147 51.0889 21.7368C51.3525 21.3218 51.4844 20.7065 51.4844 19.8911C51.4844 19.0806 51.3525 18.4727 51.0889 18.0674C50.8252 17.6621 50.3931 17.4595 49.7925 17.4595C49.1968 17.4595 48.7671 17.6621 48.5034 18.0674C48.2397 18.4678 48.1079 19.0757 48.1079 19.8911ZM53.7695 19.8911C53.7695 21.2241 53.418 22.2666 52.7148 23.0186C52.0117 23.7705 51.0327 24.1465 49.7778 24.1465C48.9917 24.1465 48.2983 23.9756 47.6978 23.6338C47.0972 23.2871 46.6357 22.7915 46.3135 22.147C45.9912 21.5024 45.8301 20.7505 45.8301 19.8911C45.8301 18.5532 46.1792 17.5132 46.8774 16.771C47.5757 16.0288 48.5571 15.6577 49.8218 15.6577C50.6079 15.6577 51.3013 15.8286 51.9019 16.1704C52.5024 16.5122 52.9639 17.0029 53.2861 17.6426C53.6084 18.2822 53.7695 19.0317 53.7695 19.8911ZM62.7417 15.8115V16.9468L61.46 17.2764C61.6943 17.6426 61.8115 18.0527 61.8115 18.5068C61.8115 19.3857 61.5039 20.0718 60.8887 20.5649C60.2783 21.0532 59.4287 21.2974 58.3398 21.2974L57.937 21.2754L57.6074 21.2388C57.3779 21.4146 57.2632 21.6099 57.2632 21.8247C57.2632 22.147 57.6733 22.3081 58.4937 22.3081H59.8853C60.7837 22.3081 61.4673 22.501 61.936 22.8867C62.4097 23.2725 62.6465 23.8389 62.6465 24.5859C62.6465 25.543 62.2461 26.2852 61.4453 26.8125C60.6494 27.3398 59.5044 27.6035 58.0103 27.6035C56.8677 27.6035 55.9937 27.4033 55.3882 27.0029C54.7876 26.6074 54.4873 26.0508 54.4873 25.333C54.4873 24.8398 54.6411 24.4272 54.9487 24.0952C55.2563 23.7632 55.708 23.5264 56.3037 23.3848C56.0742 23.2871 55.874 23.1284 55.7031 22.9087C55.5322 22.6841 55.4468 22.4473 55.4468 22.1982C55.4468 21.8857 55.5371 21.627 55.7178 21.4219C55.8984 21.2119 56.1597 21.0068 56.5015 20.8066C56.0718 20.6211 55.73 20.3232 55.4761 19.9131C55.2271 19.5029 55.1025 19.0195 55.1025 18.4629C55.1025 17.5693 55.3931 16.8784 55.9741 16.3901C56.5552 15.9019 57.3853 15.6577 58.4644 15.6577C58.6938 15.6577 58.9648 15.6797 59.2773 15.7236C59.5947 15.7627 59.7974 15.792 59.8853 15.8115H62.7417ZM56.4209 25.1572C56.4209 25.4648 56.5674 25.7065 56.8604 25.8823C57.1582 26.0581 57.5732 26.146 58.1055 26.146C58.9062 26.146 59.5337 26.0361 59.9878 25.8164C60.4419 25.5967 60.6689 25.2964 60.6689 24.9155C60.6689 24.6079 60.5347 24.3955 60.2661 24.2783C59.9976 24.1611 59.5825 24.1025 59.021 24.1025H57.8638C57.4536 24.1025 57.1094 24.1978 56.8311 24.3882C56.5576 24.5835 56.4209 24.8398 56.4209 25.1572ZM57.2339 18.4922C57.2339 18.9365 57.334 19.2881 57.5342 19.5469C57.7393 19.8057 58.0493 19.9351 58.4644 19.9351C58.8843 19.9351 59.1919 19.8057 59.3872 19.5469C59.5825 19.2881 59.6802 18.9365 59.6802 18.4922C59.6802 17.5059 59.2749 17.0127 58.4644 17.0127C57.644 17.0127 57.2339 17.5059 57.2339 18.4922ZM66.3306 24H64.0967V12.6035H66.3306V24ZM72.0728 17.2471C71.5991 17.2471 71.228 17.3984 70.9595 17.7012C70.6909 17.999 70.5371 18.4238 70.498 18.9756H73.6328C73.623 18.4238 73.479 17.999 73.2007 17.7012C72.9224 17.3984 72.5464 17.2471 72.0728 17.2471ZM72.3877 24.1465C71.0693 24.1465 70.0391 23.7827 69.2969 23.0552C68.5547 22.3276 68.1836 21.2974 68.1836 19.9644C68.1836 18.5923 68.5254 17.5327 69.209 16.7856C69.8975 16.0337 70.8472 15.6577 72.0581 15.6577C73.2153 15.6577 74.1162 15.9873 74.7607 16.6465C75.4053 17.3057 75.7275 18.2163 75.7275 19.3784V20.4624H70.4468C70.4712 21.0972 70.6592 21.5928 71.0107 21.9492C71.3623 22.3057 71.8555 22.4839 72.4902 22.4839C72.9834 22.4839 73.4497 22.4326 73.8892 22.3301C74.3286 22.2275 74.7876 22.064 75.2661 21.8394V23.5679C74.8755 23.7632 74.458 23.9072 74.0137 24C73.5693 24.0977 73.0273 24.1465 72.3877 24.1465ZM83.8867 18.3311H84.6338C85.332 18.3311 85.8545 18.1943 86.2012 17.9209C86.5479 17.6426 86.7212 17.2397 86.7212 16.7124C86.7212 16.1802 86.5747 15.7871 86.2817 15.5332C85.9937 15.2793 85.5396 15.1523 84.9194 15.1523H83.8867V18.3311ZM89.0137 16.6318C89.0137 17.7842 88.6523 18.6655 87.9297 19.2759C87.2119 19.8862 86.189 20.1914 84.8608 20.1914H83.8867V24H81.6162V13.292H85.0366C86.3354 13.292 87.3218 13.5728 87.9956 14.1343C88.6743 14.6909 89.0137 15.5234 89.0137 16.6318ZM93.0933 24H90.8594V12.6035H93.0933V24ZM100.645 24L100.212 22.8867H100.154C99.7778 23.3604 99.3896 23.6899 98.9893 23.8755C98.5938 24.0562 98.0762 24.1465 97.4365 24.1465C96.6504 24.1465 96.0303 23.9219 95.5762 23.4727C95.127 23.0234 94.9023 22.3838 94.9023 21.5537C94.9023 20.6846 95.2051 20.0449 95.8105 19.6348C96.4209 19.2197 97.3389 18.9902 98.5645 18.9463L99.9854 18.9023V18.5435C99.9854 17.7134 99.5605 17.2983 98.7109 17.2983C98.0566 17.2983 97.2876 17.4961 96.4038 17.8916L95.6641 16.3828C96.6064 15.8896 97.6514 15.6431 98.7988 15.6431C99.8975 15.6431 100.74 15.8823 101.326 16.3608C101.912 16.8394 102.205 17.5669 102.205 18.5435V24H100.645ZM99.9854 20.2061L99.1211 20.2354C98.4717 20.2549 97.9883 20.3721 97.6709 20.5869C97.3535 20.8018 97.1948 21.1289 97.1948 21.5684C97.1948 22.1982 97.5562 22.5132 98.2788 22.5132C98.7964 22.5132 99.209 22.3643 99.5166 22.0664C99.8291 21.7686 99.9854 21.373 99.9854 20.8799V20.2061ZM103.34 15.8115H105.786L107.332 20.4185C107.463 20.8188 107.554 21.2925 107.603 21.8394H107.646C107.7 21.3364 107.805 20.8628 107.961 20.4185L109.478 15.8115H111.873L108.408 25.0474C108.091 25.9019 107.637 26.5415 107.046 26.9663C106.46 27.3911 105.774 27.6035 104.988 27.6035C104.602 27.6035 104.224 27.562 103.853 27.479V25.7065C104.121 25.77 104.414 25.8018 104.731 25.8018C105.127 25.8018 105.471 25.6797 105.764 25.4355C106.062 25.1963 106.294 24.8325 106.46 24.3442L106.592 23.9414L103.34 15.8115Z" fill="white"/>
<path d="M10.9075 14.5218L14.5097 10.9048L2.87489 4.33886C2.10379 3.92054 1.38141 3.86182 0.747959 4.31929L10.9075 14.5218ZM15.1236 18.7564L18.8683 16.6415C19.5992 16.2305 20 15.6483 20 15.0025C20 14.3579 19.5992 13.7744 18.8695 13.3634L15.4794 11.4516L11.6628 15.2826L15.1236 18.7564V18.7564ZM0.121817 5.20854C0.0438542 5.4495 0 5.7186 0 6.01338V24.0001C0 24.4661 0.102327 24.8673 0.287489 25.1866L10.1511 15.2814L0.121817 5.20854ZM10.9075 16.0397L1.09879 25.8899C1.28639 25.9621 1.48861 26 1.70179 26C2.08186 26 2.47777 25.8875 2.88098 25.6624L14.1552 19.3056L10.9075 16.0397V16.0397Z" fill="white"/>
</svg>
